<svg xmlns="http://www.w3.org/2000/svg" viewBox="0 0 220 130" role="img" aria-label="Illustrated American kestrel with blue-gray wings, russet back, and dark facial stripes">
<defs><linearGradient id="body" x2=".8" y2="1"><stop stop-color="#f6d4a1"/><stop offset="1" stop-color="#c76f3d"/></linearGradient><linearGradient id="blue" x2="1" y2="1"><stop stop-color="#a7b4c4"/><stop offset="1" stop-color="#375d7c"/></linearGradient></defs>
<!-- barred russet tail --><path d="M84 81 Q47 103 8 117 Q49 118 98 94 L108 78Z" fill="#c76f3d" stroke="#283b4d" stroke-width="2"/><path d="M17 114 Q55 103 94 87" fill="none" stroke="#263c51" stroke-width="7"/><path d="M42 108 L56 109 M64 101 L78 102" stroke="#f4d6b4" stroke-width="3"/>
<!-- swept blue-gray upper wing --><path d="M107 72 Q86 40 52 10 Q93 21 121 48 Q140 25 176 5 Q160 46 143 72Z" fill="url(#blue)" stroke="#263c51" stroke-width="2.4"/><path d="M55 13 Q92 42 112 68 M71 17 Q101 41 119 64 M88 27 Q111 47 124 66 M175 9 Q149 43 137 65 M159 18 Q143 42 133 61" fill="none" stroke="#d7e0e7" stroke-width="3"/><g fill="#263c51"><ellipse cx="87" cy="40" rx="3" ry="4" transform="rotate(-40 87 40)"/><ellipse cx="99" cy="49" rx="3" ry="4" transform="rotate(-40 99 49)"/><ellipse cx="149" cy="42" rx="3" ry="4" transform="rotate(35 149 42)"/></g>
<!-- spotted rust back and cream breast --><path d="M98 64 Q117 45 142 57 Q157 67 151 86 Q131 109 107 100 Q94 91 98 64Z" fill="url(#body)" stroke="#5e4238" stroke-width="2"/><path d="M127 74 Q143 77 146 89 Q129 106 111 97 Q115 82 127 74Z" fill="#f7e5c7"/><g fill="#283c4e"><ellipse cx="112" cy="69" rx="3" ry="2"/><ellipse cx="123" cy="64" rx="3" ry="2"/><ellipse cx="130" cy="71" rx="2.5" ry="2"/><ellipse cx="121" cy="87" rx="2" ry="3"/><ellipse cx="131" cy="91" rx="2" ry="3"/></g>
<!-- authentic kestrel head with double dark malar marks --><path d="M133 64 Q129 43 146 33 Q165 27 176 43 Q184 56 167 69 Q150 77 133 64Z" fill="#e9c79e" stroke="#5e4238" stroke-width="2"/><path d="M138 43 Q153 26 170 40 Q160 41 153 47Z" fill="#58758b"/><path d="M145 46 Q140 56 148 67 L154 67 Q151 56 153 47Z" fill="#263c51"/><path d="M160 44 Q155 54 164 64 L170 61 Q164 52 167 45Z" fill="#263c51"/><path d="M146 55 Q160 51 174 55 Q166 65 151 65Z" fill="#fff4df"/><circle cx="165" cy="47" r="4.2" fill="#f6d48d"/><circle cx="165.5" cy="47" r="2.6" fill="#172a39"/><circle cx="166.2" cy="46.3" r=".9" fill="#fff"/><path d="M176 51 L195 57 L179 63 Q185 57 176 51Z" fill="#e7aa36" stroke="#34404a" stroke-width="1.5"/>
<!-- yellow talons --><path d="M133 99 L131 111 L124 115 M131 111 L136 117 M143 97 L145 110 L139 116 M145 110 L152 115" stroke="#d7a32c" stroke-width="3" stroke-linecap="round" fill="none"/></svg>